<svg width="40" height="40" viewBox="0 0 40 40" fill="none" xmlns="http://www.w3.org/2000/svg">
<path d="M9.5752 15.9922C13.096 15.9922 15.9502 13.138 15.9502 9.61719C15.9502 6.09637 13.096 3.24219 9.5752 3.24219C6.05438 3.24219 3.2002 6.09637 3.2002 9.61719C3.2002 13.138 6.05438 15.9922 9.5752 15.9922Z" fill="white"/>
<path d="M36.3752 28.2672C36.2752 27.9922 36.1502 27.7172 36.0252 27.4672C34.7502 24.6922 33.5002 23.6922 33.5002 20.0172C33.5002 16.5172 34.7752 14.4172 35.0752 13.9422C35.1002 13.9172 35.1252 13.8672 35.1752 13.8172C36.2252 12.5922 36.8252 10.9672 36.7252 9.21716C36.5252 6.09216 34.0002 3.51716 30.8502 3.26716C28.0502 3.04216 25.6002 4.64216 24.5252 6.99216C24.3752 7.31716 24.2752 7.64216 24.1752 7.99216C24.0502 8.46716 23.9252 8.94216 23.7252 9.39216C22.8502 11.5422 21.4002 14.7922 18.2752 17.9172C13.4502 22.7422 11.5252 23.2672 8.32522 24.1172C8.02522 24.1672 7.75022 24.2422 7.47522 24.3422C7.37522 24.3672 7.30022 24.3922 7.20022 24.4422C4.70022 25.4422 2.97522 28.0172 3.22522 30.9422C3.47522 33.9172 6.25022 36.5922 9.22522 36.7422C10.8252 36.8422 12.3002 36.3422 13.4502 35.4422C14.1252 34.9172 14.7002 34.2922 15.1252 33.5422C15.3502 33.1672 15.8502 31.9422 16.0002 31.5172C16.1252 31.0922 16.2752 30.6672 16.4752 30.2672C17.6502 27.6922 18.7252 24.5422 21.7252 22.2172C23.9502 20.1172 25.8002 18.7922 27.4002 17.8922C27.4502 18.7672 27.4752 19.6672 27.4752 20.5422C27.4752 23.3422 26.6502 24.7422 25.6002 26.1672C25.4752 26.3172 25.3502 26.4672 25.2252 26.6422C24.3752 27.7922 23.9252 29.2422 24.0252 30.7922C24.2252 33.9672 26.8002 36.5422 29.9752 36.7422C33.7002 36.9922 36.8002 34.0422 36.8002 30.3672C36.7502 29.6422 36.6252 28.9422 36.3752 28.2672Z" fill="white"/>
</svg>
