<svg width="24" height="24" viewBox="0 0 24 24" fill="none" xmlns="http://www.w3.org/2000/svg">
	<path fillRule="evenodd" clipRule="evenodd" d="M8.78234 17.0305C8.71267 17.1003 8.62991 17.1557 8.53879 17.1936C8.44767 17.2314 8.34999 17.2508 8.25134 17.2508C8.15269 17.2508 8.05501 17.2314 7.96389 17.1936C7.87277 17.1557 7.79001 17.1003 7.72034 17.0305L3.22034 12.5305C3.15049 12.4608 3.09508 12.3781 3.05727 12.2869C3.01946 12.1958 3 12.0981 3 11.9995C3 11.9008 3.01946 11.8032 3.05727 11.712C3.09508 11.6209 3.15049 11.5382 3.22034 11.4685L7.72034 6.96848C7.86117 6.82765 8.05217 6.74854 8.25134 6.74854C8.4505 6.74854 8.64151 6.82765 8.78234 6.96848C8.92317 7.10931 9.00228 7.30032 9.00228 7.49949C9.00228 7.69865 8.92317 7.88966 8.78234 8.03049L4.81184 11.9995L8.78234 15.9685C8.85218 16.0382 8.9076 16.1209 8.94541 16.212C8.98322 16.3032 9.00268 16.4008 9.00268 16.4995C9.00268 16.5981 8.98322 16.6958 8.94541 16.7869C8.9076 16.8781 8.85218 16.9608 8.78234 17.0305Z" fill="#313130" />
	<path fillRule="evenodd" clipRule="evenodd" d="M21.0013 11.9995C21.0013 12.1984 20.9223 12.3892 20.7817 12.5298C20.641 12.6705 20.4503 12.7495 20.2513 12.7495L4.50134 12.7495C4.30243 12.7495 4.11166 12.6705 3.97101 12.5298C3.83036 12.3892 3.75134 12.1984 3.75134 11.9995C3.75134 11.8006 3.83036 11.6098 3.97101 11.4692C4.11166 11.3285 4.30243 11.2495 4.50134 11.2495L20.2513 11.2495C20.4503 11.2495 20.641 11.3285 20.7817 11.4692C20.9223 11.6098 21.0013 11.8006 21.0013 11.9995Z" fill="#313130" />
</svg>
