<svg width="24" height="24" viewBox="0 0 24 24" fill="none" xmlns="http://www.w3.org/2000/svg">
	<path fillRule="evenodd" clipRule="evenodd" d="M10.7191 6.16678C10.719 6.06813 10.7383 5.97042 10.776 5.87926C10.8137 5.78809 10.869 5.70526 10.9388 5.6355C11.0085 5.56574 11.0914 5.51043 11.1825 5.47274C11.2737 5.43505 11.3714 5.41571 11.4701 5.41583L17.834 5.41583C17.9327 5.41571 18.0304 5.43504 18.1215 5.47274C18.2127 5.51043 18.2955 5.56574 18.3653 5.6355C18.4351 5.70526 18.4904 5.78809 18.5281 5.87925C18.5658 5.97042 18.5851 6.06813 18.585 6.16678L18.585 12.5307C18.585 12.7299 18.5058 12.9209 18.365 13.0617C18.2242 13.2026 18.0332 13.2817 17.834 13.2817C17.6349 13.2817 17.4438 13.2026 17.303 13.0617C17.1622 12.9209 17.0831 12.7299 17.0831 12.5307L17.0841 6.91666L11.4701 6.91773C11.3714 6.91785 11.2737 6.89851 11.1825 6.86082C11.0914 6.82312 11.0085 6.76781 10.9388 6.69806C10.869 6.6283 10.8137 6.54547 10.776 6.4543C10.7383 6.36314 10.719 6.26543 10.7191 6.16678Z" fill="#313130" />
	<path fillRule="evenodd" clipRule="evenodd" d="M5.63641 18.3644C5.49576 18.2237 5.41674 18.033 5.41674 17.834C5.41674 17.6351 5.49576 17.4444 5.63641 17.3037L16.7733 6.16678C16.914 6.02613 17.1048 5.94711 17.3037 5.94711C17.5026 5.94711 17.6933 6.02613 17.834 6.16678C17.9747 6.30744 18.0537 6.4982 18.0537 6.69711C18.0537 6.89603 17.9747 7.08679 17.834 7.22744L6.69707 18.3644C6.55642 18.505 6.36565 18.584 6.16674 18.584C5.96783 18.584 5.77706 18.505 5.63641 18.3644Z" fill="#313130" />
</svg>
