<svg width="24" height="24" viewBox="0 0 24 24" fill="none" xmlns="http://www.w3.org/2000/svg">
	<path d="M9.03842 16.6775C7.8979 16.6775 6.97341 17.602 6.97341 18.7425C6.97341 19.8829 7.8979 20.8074 9.03842 20.8074C10.1788 20.8074 11.1033 19.8829 11.1033 18.7425C11.1021 17.6026 10.1784 16.6787 9.03842 16.6775ZM9.03842 20.0482C8.31722 20.0482 7.73258 19.4636 7.73258 18.7425C7.73258 18.0213 8.31722 17.4367 9.03842 17.4367C9.75948 17.4367 10.3441 18.0213 10.3441 18.7425C10.3441 19.4636 9.75948 20.0482 9.03842 20.0482Z" fill="#313130" />
	<path fillRule="evenodd" clipRule="evenodd" d="M11.2959 18.7425C11.2959 19.9893 10.2852 21 9.03842 21C7.79152 21 6.78077 19.9893 6.78077 18.7425C6.78077 17.4956 7.79151 16.4849 9.03842 16.4849V16.6775C7.8979 16.6775 6.97341 17.602 6.97341 18.7425C6.97341 19.8829 7.8979 20.8074 9.03842 20.8074C10.1788 20.8074 11.1033 19.8829 11.1033 18.7425C11.1021 17.6026 10.1784 16.6787 9.03842 16.6775V16.4849C10.2846 16.4862 11.2946 17.4964 11.2959 18.7425ZM7.92522 18.7425C7.92522 19.3572 8.4236 19.8556 9.03842 19.8556C9.65309 19.8556 10.1515 19.3572 10.1515 18.7425C10.1515 18.1277 9.65307 17.6293 9.03842 17.6293C8.42361 17.6293 7.92522 18.1277 7.92522 18.7425ZM7.73258 18.7425C7.73258 19.4636 8.31722 20.0482 9.03842 20.0482C9.75948 20.0482 10.3441 19.4636 10.3441 18.7425C10.3441 18.0213 9.75948 17.4367 9.03842 17.4367C8.31722 17.4367 7.73258 18.0213 7.73258 18.7425Z" fill="#313130" />
	<path d="M17.0096 16.6775C15.8691 16.6775 14.9446 17.602 14.9446 18.7425C14.9446 19.8829 15.8691 20.8074 17.0096 20.8074C18.15 20.8074 19.0745 19.8829 19.0745 18.7425C19.0733 17.6026 18.1495 16.6787 17.0096 16.6775ZM17.0096 20.0482C16.2884 20.0482 15.7038 19.4636 15.7038 18.7425C15.7038 18.0213 16.2884 17.4367 17.0096 17.4367C17.7307 17.4367 18.3153 18.0213 18.3153 18.7425C18.3153 19.4636 17.7307 20.0482 17.0096 20.0482Z" fill="#313130" />
	<path fillRule="evenodd" clipRule="evenodd" d="M19.2671 18.7425C19.2671 19.9893 18.2564 21 17.0096 21C15.7627 21 14.752 19.9893 14.752 18.7425C14.752 17.4956 15.7627 16.4849 17.0096 16.4849L17.0096 16.6775C15.8691 16.6775 14.9446 17.602 14.9446 18.7425C14.9446 19.8829 15.8691 20.8074 17.0096 20.8074C18.15 20.8074 19.0745 19.8829 19.0745 18.7425C19.0733 17.6026 18.1495 16.6787 17.0096 16.6775L17.0096 16.4849C18.2558 16.4862 19.2658 17.4964 19.2671 18.7425ZM15.8964 18.7425C15.8964 19.3572 16.3948 19.8556 17.0096 19.8556C17.6243 19.8556 18.1227 19.3572 18.1227 18.7425C18.1227 18.1277 17.6243 17.6293 17.0096 17.6293C16.3948 17.6293 15.8964 18.1277 15.8964 18.7425ZM15.7038 18.7425C15.7038 19.4636 16.2884 20.0482 17.0096 20.0482C17.7307 20.0482 18.3153 19.4636 18.3153 18.7425C18.3153 18.0213 17.7307 17.4367 17.0096 17.4367C16.2884 17.4367 15.7038 18.0213 15.7038 18.7425Z" fill="#313130" />
	<path d="M5.19965 4.19254C5.27439 4.89673 6.10618 12.7126 6.23456 13.9201C6.3316 14.833 7.10491 15.5217 8.03313 15.5217H17.4256C18.2725 15.5217 19.0163 14.9266 19.1941 14.1073L20.6418 7.42372C20.7184 7.06954 20.6304 6.70522 20.4001 6.42438C20.1699 6.14294 19.8281 5.98135 19.4623 5.98135H6.60223L6.34185 3.53426C6.3093 3.23016 6.05072 3 5.74212 3H3.9339C3.60119 3 3.33116 3.26713 3.33116 3.59627C3.33116 3.92541 3.60119 4.19254 3.9339 4.19254H5.19965ZM19.4623 7.17389L18.0151 13.8575C17.9554 14.1306 17.7077 14.3291 17.425 14.3291H8.03313C7.72333 14.3291 7.46596 14.0996 7.43341 13.7955L6.72881 7.17389H19.4623Z" fill="#313130" />
</svg>
