<svg width="24" height="24" viewBox="0 0 24 24" fill="none" xmlns="http://www.w3.org/2000/svg">
	<path fillRule="evenodd" clipRule="evenodd" d="M11.9998 14.6606L4.64321 7.30267C4.46303 7.12249 4.21865 7.02126 3.96384 7.02126C3.70904 7.02126 3.46467 7.12248 3.28449 7.30265C3.10432 7.48282 3.0031 7.72719 3.0031 7.982C3.0031 8.2368 3.10432 8.48117 3.28449 8.66134L11.3202 16.6971C11.4094 16.7865 11.5153 16.8574 11.6319 16.9058C11.7485 16.9542 11.8736 16.9791 11.9998 16.9791C12.1261 16.9791 12.2511 16.9542 12.3677 16.9058C12.4843 16.8574 12.5903 16.7865 12.6794 16.6971L20.715 8.66146C20.8044 8.57233 20.8752 8.46645 20.9236 8.34989C20.972 8.23327 20.9969 8.10825 20.9969 7.982C20.9969 7.85574 20.972 7.73072 20.9236 7.6141C20.8752 7.49748 20.8048 7.39207 20.7154 7.30291C20.6262 7.21352 20.5203 7.1426 20.4037 7.0942C20.2871 7.04581 20.1621 7.0209 20.0358 7.0209C19.9095 7.0209 19.7845 7.04581 19.6679 7.0942C19.5514 7.14257 19.4453 7.21358 19.3562 7.30291L11.9998 14.6606ZM11.5496 16.5149C11.5414 16.5075 11.5335 16.4999 11.5257 16.4921L11.5496 16.5149Z" fill="#313130" />
</svg>
