<svg width="24" height="25" viewBox="0 0 24 25" fill="none" xmlns="http://www.w3.org/2000/svg">
<path fillRule="evenodd" clipRule="evenodd" d="M6.96902 2.71912C7.03869 2.64928 7.12145 2.59386 7.21257 2.55605C7.30369 2.51824 7.40137 2.49878 7.50002 2.49878C7.59867 2.49878 7.69635 2.51824 7.78747 2.55605C7.87859 2.59386 7.96135 2.64928 8.03102 2.71912L17.031 11.7191C17.1009 11.7888 17.1563 11.8716 17.1941 11.9627C17.2319 12.0538 17.2514 12.1515 17.2514 12.2501C17.2514 12.3488 17.2319 12.4465 17.1941 12.5376C17.1563 12.6287 17.1009 12.7115 17.031 12.7811L8.03102 21.7811C7.89019 21.9219 7.69918 22.0011 7.50002 22.0011C7.30086 22.0011 7.10985 21.9219 6.96902 21.7811C6.82819 21.6403 6.74907 21.4493 6.74907 21.2501C6.74907 21.051 6.82819 20.8599 6.96902 20.7191L15.4395 12.2501L6.96902 3.78112C6.89918 3.71145 6.84376 3.62869 6.80595 3.53757C6.76814 3.44645 6.74868 3.34877 6.74868 3.25012C6.74868 3.15147 6.76814 3.05379 6.80595 2.96267C6.84376 2.87155 6.89918 2.78879 6.96902 2.71912Z" fill="#1BC074"/>
</svg>
