<svg width="21" height="20" viewBox="0 0 21 20" fill="none" xmlns="http://www.w3.org/2000/svg">
<path d="M7.26172 15.3125H16.0391C17.3453 15.3125 18.5017 14.4391 18.8525 13.1882L20.754 6.64797C20.8055 6.47094 20.7707 6.28004 20.66 6.13262C20.5493 5.9852 20.3757 5.89844 20.1914 5.89844H5.38859L4.70055 2.68664C4.36574 1.12988 2.96223 0 1.36328 0C1.03969 0 0.777344 0.262344 0.777344 0.585938C0.777344 0.909531 1.03969 1.17188 1.36328 1.17188C2.39676 1.17188 3.33894 1.92902 3.5548 2.93258L5.71129 12.9988C5.82062 13.5073 6.06578 13.9776 6.41406 14.3591C5.87195 14.6589 5.50391 15.2364 5.50391 15.8984C5.50391 16.7079 6.0541 17.391 6.80004 17.5943C6.72019 17.795 6.67578 18.0134 6.67578 18.2422C6.67578 19.2114 7.46434 20 8.43359 20C9.40285 20 10.1914 19.2114 10.1914 18.2422C10.1914 18.0368 10.1557 17.8396 10.0906 17.6562H14.9797C14.9146 17.8396 14.8789 18.0368 14.8789 18.2422C14.8789 19.2114 15.6675 20 16.6367 20C17.606 20 18.3945 19.2114 18.3945 18.2422C18.3945 18.0368 18.3588 17.8396 18.2937 17.6562H18.9805C19.3041 17.6562 19.5664 17.3939 19.5664 17.0703C19.5664 16.7467 19.3041 16.4844 18.9805 16.4844H7.26172C6.93863 16.4844 6.67578 16.2215 6.67578 15.8984C6.67578 15.5754 6.93863 15.3125 7.26172 15.3125Z" fill="url(#paint0_linear_497_12677)"/>
<path d="M16.1462 8.23327C15.8269 8.18065 15.5254 8.39682 15.4727 8.71612L14.8868 12.2708C14.8342 12.5901 15.0503 12.8916 15.3696 12.9442C15.6898 12.9971 15.9906 12.7798 16.0431 12.4614L16.629 8.90671C16.6816 8.58737 16.4655 8.28589 16.1462 8.23327ZM9.59777 8.71608C9.54515 8.39678 9.24375 8.18061 8.92433 8.23323C8.60504 8.28585 8.38886 8.58737 8.44148 8.90667L9.02742 12.4614C9.07992 12.7799 9.38078 12.997 9.70086 12.9442C10.0202 12.8916 10.2363 12.5901 10.1837 12.2708L9.59777 8.71608ZM12.5353 8.22546C12.2117 8.22546 11.9493 8.4878 11.9493 8.81139V12.3661C11.9493 12.6897 12.2117 12.952 12.5353 12.952C12.8589 12.952 13.1212 12.6897 13.1212 12.3661V8.81139C13.1212 8.4878 12.8589 8.22546 12.5353 8.22546Z" fill="url(#paint1_linear_497_12677)"/>
<defs>
<linearGradient id="paint0_linear_497_12677" x1="10.7773" y1="20" x2="10.7773" y2="0" gradientUnits="userSpaceOnUse">
<stop stopColor="#1FDB84"/>
<stop offset="1" stopColor="#36FF9A"/>
</linearGradient>
<linearGradient id="paint1_linear_497_12677" x1="12.5353" y1="12.9521" x2="12.5353" y2="8.22538" gradientUnits="userSpaceOnUse">
<stop stopColor="#36FF9A"/>
<stop offset="1" stopColor="#EBFFF5"/>
</linearGradient>
</defs>
</svg>
