<svg width="20" height="20" viewBox="0 0 20 20" fill="none" xmlns="http://www.w3.org/2000/svg">
	<path d="M10 0.999988C5.02949 0.999988 0.999999 5.02948 0.999999 9.99999C0.999999 14.9705 5.02949 19 10 19C14.9705 19 19 14.9705 19 9.99999C18.9944 5.03182 14.9682 1.00555 10 0.999988ZM17.7837 13.1529L15.2242 13.5946C15.5172 12.5201 15.6754 11.4134 15.6952 10.3H18.3925C18.3587 11.2794 18.1526 12.2452 17.7837 13.1529ZM1.60747 10.3H4.30483C4.32461 11.4134 4.48281 12.5201 4.77578 13.5946L2.21626 13.1529C1.84741 12.2452 1.64131 11.2794 1.60747 10.3ZM2.21626 6.84706L4.77578 6.40541C4.48281 7.47987 4.32461 8.58656 4.30483 9.69999H1.60747C1.64131 8.72059 1.84741 7.75482 2.21626 6.84706ZM10.3 5.81683C11.378 5.8306 12.4533 5.92875 13.5161 6.11053L14.575 6.2932C14.9003 7.40033 15.0754 8.54613 15.0955 9.69999H10.3V5.81683ZM13.6183 5.51918C12.5219 5.33182 11.4123 5.2306 10.3 5.21683V1.61683C12.0199 1.78207 13.5139 3.35678 14.3605 5.64852L13.6183 5.51918ZM9.7 5.21683C8.58774 5.2306 7.47842 5.33182 6.38198 5.51918L5.63945 5.64764C6.48613 3.35531 7.98013 1.78002 9.7 1.61552V5.21683ZM6.48423 6.11053C7.54683 5.92875 8.62202 5.8306 9.7 5.81683V9.69999H4.90454C4.92461 8.54613 5.09966 7.40033 5.425 6.2932L6.48423 6.11053ZM4.90454 10.3H9.7V14.1831C8.62202 14.1694 7.54668 14.0712 6.48394 13.8894L5.425 13.7068C5.09966 12.5996 4.92461 11.4538 4.90454 10.3ZM6.38169 14.4808C7.47812 14.6684 8.5876 14.7701 9.7 14.7848V18.3848C7.98013 18.2194 6.48613 16.6447 5.63945 14.3529L6.38169 14.4808ZM10.3 14.7848C11.4123 14.7701 12.5216 14.6684 13.618 14.4808L14.3605 14.3523C13.5139 16.6447 12.0199 18.22 10.3 18.3845V14.7848ZM13.5158 13.8894C12.4532 14.0712 11.378 14.1694 10.3 14.1831V10.3H15.0955C15.0754 11.4538 14.9003 12.5996 14.575 13.7068L13.5158 13.8894ZM15.6952 9.69999C15.6754 8.58656 15.5172 7.47987 15.2242 6.40541L17.7837 6.84706C18.1526 7.75482 18.3587 8.72059 18.3925 9.69999H15.6952ZM17.4802 6.18583L15.0268 5.76249C14.5857 4.32357 13.7605 3.03217 12.6399 2.02743C14.7354 2.72675 16.4731 4.21957 17.4802 6.18583ZM7.36006 2.02743C6.23945 3.03217 5.41431 4.32357 4.97324 5.76249L2.51977 6.18583C3.52685 4.21957 5.2646 2.72675 7.36006 2.02743ZM2.51977 13.8141L4.97324 14.2375C5.41431 15.6764 6.23945 16.9678 7.36006 17.9725C5.2646 17.2732 3.52685 15.7804 2.51977 13.8141ZM12.6399 17.9725C13.7605 16.9678 14.5857 15.6764 15.0268 14.2375L17.4802 13.8141C16.4731 15.7804 14.7354 17.2732 12.6399 17.9725Z" fill="#313130" />
	<path fillRule="evenodd" clipRule="evenodd" d="M10.0002 0.799988C15.0787 0.805678 19.1943 4.92132 19.2 9.99976C19.2 15.0807 15.081 19.2 10 19.2C4.91903 19.2 0.799999 15.081 0.799999 9.99999C0.799999 4.91902 4.91926 0.799988 10.0002 0.799988ZM17.7837 13.1529C18.1275 12.307 18.3298 11.4107 18.3832 10.5C18.3871 10.4334 18.3902 10.3667 18.3925 10.3H15.6952C15.6767 11.3401 15.5374 12.3743 15.2803 13.3819C15.2622 13.4529 15.2435 13.5238 15.2242 13.5946L17.7837 13.1529ZM15.4959 13.3447L17.6394 12.9749C17.9486 12.1832 18.1319 11.3481 18.1829 10.5H15.8902C15.8593 11.4596 15.7271 12.4131 15.4959 13.3447ZM13.6526 5.32215L14.0456 5.39062C13.2351 3.41203 11.9402 2.09402 10.5 1.84534V5.02021C11.5566 5.04303 12.6108 5.14412 13.6526 5.32215ZM10.3 5.21683V1.61683C10.367 1.62327 10.4337 1.63185 10.5 1.64253C12.0809 1.89712 13.4527 3.34505 14.2774 5.43102C14.3058 5.50277 14.3335 5.57528 14.3605 5.64852L13.6183 5.51918C12.5219 5.33182 11.4123 5.2306 10.3 5.21683ZM6.38198 5.51918C7.47842 5.33182 8.58774 5.2306 9.7 5.21683V1.61552C9.63298 1.62193 9.56631 1.63048 9.5 1.64113C7.919 1.89515 6.54717 3.34368 5.72251 5.4303C5.69417 5.502 5.66648 5.57446 5.63945 5.64764L6.38198 5.51918ZM5.95419 5.39022L6.34789 5.3221C7.3897 5.14409 8.44347 5.04303 9.5 5.02021V1.84393C8.05971 2.09206 6.76465 3.41071 5.95419 5.39022ZM4.90957 10.5C4.90738 10.4334 4.9057 10.3667 4.90454 10.3H9.7V14.1831C9.63332 14.1823 9.56665 14.1811 9.5 14.1796C8.48904 14.1569 7.48094 14.06 6.48394 13.8894L5.425 13.7068C5.11846 12.6636 4.94535 11.5862 4.90957 10.5ZM5.10968 10.5C5.144 11.5257 5.30272 12.5434 5.58243 13.531L6.51766 13.6923C7.50352 13.8609 8.50033 13.9569 9.5 13.9796V10.5H5.10968ZM6.34773 14.6779L5.95411 14.6101C6.76453 16.5891 8.0596 17.9074 9.5 18.1562V14.9812C8.44332 14.9576 7.38958 14.8562 6.34773 14.6779ZM9.7 14.7848C8.5876 14.7701 7.47812 14.6684 6.38169 14.4808L5.63945 14.3529C5.66648 14.4261 5.69417 14.4985 5.7225 14.5702C6.54716 16.6563 7.919 18.1043 9.5 18.359C9.56631 18.3697 9.63298 18.3783 9.7 18.3848V14.7848ZM13.618 14.4808C12.5216 14.6684 11.4123 14.7701 10.3 14.7848V18.3845C10.367 18.3781 10.4337 18.3695 10.5 18.3588C12.081 18.1048 13.4528 16.6563 14.2775 14.5697C14.3058 14.498 14.3335 14.4255 14.3605 14.3523L13.618 14.4808ZM14.0458 14.6098L13.6521 14.6779C12.6103 14.8562 11.5565 14.9576 10.5 14.9812V18.156C11.9403 17.9079 13.2353 16.5893 14.0458 14.6098ZM19 9.99999C19 14.9705 14.9705 19 10 19C5.02949 19 0.999999 14.9705 0.999999 9.99999C0.999999 5.02948 5.02949 0.999988 10 0.999988C14.9682 1.00555 18.9944 5.03182 19 9.99999ZM1.60747 10.3C1.60978 10.3667 1.61288 10.4334 1.61678 10.5C1.67015 11.4107 1.87254 12.307 2.21626 13.1529L4.77578 13.5946C4.75649 13.5238 4.73779 13.4529 4.71967 13.3819C4.46258 12.3743 4.32331 11.3401 4.30483 10.3H1.60747ZM1.81713 10.5C1.86806 11.3481 2.05139 12.1832 2.3606 12.9749L4.50407 13.3447C4.27285 12.4131 4.14066 11.4596 4.10977 10.5H1.81713ZM2.3606 7.02511C2.05139 7.81677 1.86806 8.65189 1.81713 9.49999H4.10977C4.14066 8.54043 4.27285 7.58689 4.50407 6.65525L2.3606 7.02511ZM2.21626 6.84706C1.87254 7.69297 1.67015 8.58925 1.61678 9.49999C1.61288 9.56658 1.60978 9.63325 1.60747 9.69999H4.30483C4.32331 8.65987 4.46258 7.62563 4.71967 6.61805C4.73779 6.54703 4.75649 6.47615 4.77578 6.40541L2.21626 6.84706ZM10.3 9.69999H15.0955C15.0943 9.63329 15.0926 9.56662 15.0904 9.49999C15.0547 8.4138 14.8815 7.33633 14.575 6.2932L13.5161 6.11053C12.5191 5.93999 11.511 5.84306 10.5 5.82036C10.4333 5.81886 10.3667 5.81769 10.3 5.81683V9.69999ZM10.5 6.02041V9.49999H14.8903C14.856 8.47429 14.6973 7.45654 14.4176 6.469L13.4823 6.30767C12.4965 6.13904 11.4997 6.04308 10.5 6.02041ZM6.51795 6.30767L5.58243 6.469C5.30272 7.45655 5.144 8.47429 5.10968 9.49999H9.5V6.02041C8.50038 6.04308 7.50365 6.13904 6.51795 6.30767ZM9.5 5.82036C8.48906 5.84306 7.4811 5.93999 6.48423 6.11053L5.425 6.2932C5.11846 7.33633 4.94535 8.4138 4.90957 9.49999C4.90738 9.56662 4.9057 9.63329 4.90454 9.69999H9.7V5.81683C9.63332 5.81769 9.56665 5.81886 9.5 5.82036ZM13.4818 13.6924C12.4961 13.861 11.4996 13.9569 10.5 13.9796L13.4818 13.6924ZM13.4818 13.6924L14.4176 13.531C14.6973 12.5434 14.856 11.5257 14.8903 10.5H10.5V13.9796M10.5 14.1796C10.4333 14.1811 10.3667 14.1823 10.3 14.1831V10.3H15.0955C15.0943 10.3667 15.0926 10.4334 15.0904 10.5C15.0547 11.5862 14.8815 12.6636 14.575 13.7068L13.5158 13.8894C12.5189 14.06 11.5109 14.1569 10.5 14.1796ZM15.8902 9.49999H18.1829C18.1319 8.65189 17.9486 7.81677 17.6394 7.02511L15.4959 6.65525C15.7271 7.58689 15.8593 8.54043 15.8902 9.49999ZM15.2803 6.61805C15.5374 7.62563 15.6767 8.65987 15.6952 9.69999H18.3925C18.3902 9.63325 18.3871 9.56658 18.3832 9.49999C18.3298 8.58925 18.1275 7.69297 17.7837 6.84706L15.2242 6.40541C15.2435 6.47615 15.2622 6.54703 15.2803 6.61805ZM17.4802 6.18583C17.4417 6.11065 17.4021 6.03617 17.3615 5.96239C16.421 4.25419 14.9191 2.92662 13.1144 2.20172C12.9585 2.13907 12.8002 2.08093 12.6399 2.02743C12.7642 2.13886 12.8849 2.25381 13.0018 2.37211C13.9388 3.32042 14.6346 4.48315 15.0268 5.76249L17.4802 6.18583ZM17.1073 5.91852C16.2617 4.45141 14.9867 3.28417 13.4608 2.57016C14.2342 3.44368 14.821 4.46999 15.1809 5.58614L17.1073 5.91852ZM7.36006 2.02743C7.19975 2.08093 7.04154 2.13907 6.88559 2.20171C5.08094 2.92661 3.57898 4.25419 2.63847 5.96239C2.59785 6.03617 2.55828 6.11065 2.51977 6.18583L4.97324 5.76249C5.36539 4.48315 6.06115 3.32042 6.99824 2.37211C7.11513 2.25381 7.23578 2.13886 7.36006 2.02743ZM6.53921 2.57016C5.76579 3.44368 5.17904 4.46999 4.81905 5.58614L2.89273 5.91852C3.73828 4.45141 5.01333 3.28417 6.53921 2.57016ZM2.51977 13.8141C2.55828 13.8893 2.59785 13.9638 2.63847 14.0376C3.57898 15.7458 5.08093 17.0734 6.88559 17.7983C7.04154 17.8609 7.19975 17.919 7.36006 17.9725C7.23578 17.8611 7.11514 17.7462 6.99825 17.6279C6.06116 16.6796 5.36539 15.5168 4.97324 14.2375L2.51977 13.8141ZM2.89273 14.0815C3.73828 15.5486 5.01333 16.7158 6.5392 17.4298C5.76579 16.5563 5.17904 15.53 4.81905 14.4138L2.89273 14.0815ZM13.0017 17.6279C12.8849 17.7462 12.7642 17.8611 12.6399 17.9725C12.8002 17.919 12.9585 17.8609 13.1144 17.7983C14.9191 17.0734 16.421 15.7458 17.3615 14.0376C17.4021 13.9638 17.4417 13.8893 17.4802 13.8141L15.0268 14.2375C14.6346 15.5168 13.9388 16.6796 13.0017 17.6279ZM13.4608 17.4298C14.9867 16.7158 16.2617 15.5486 17.1073 14.0815L15.1809 14.4138C14.821 15.53 14.2342 16.5563 13.4608 17.4298Z" fill="#313130" />
</svg>
