<svg width="24" height="24" viewBox="0 0 24 24" fill="none" xmlns="http://www.w3.org/2000/svg">
	<path d="M12 2.99999C7.02949 2.99999 3 7.02948 3 12C3 16.9705 7.02949 21 12 21C16.9705 21 21 16.9705 21 12C20.9944 7.03182 16.9682 3.00555 12 2.99999ZM19.7837 15.1529L17.2242 15.5946C17.5172 14.5201 17.6754 13.4134 17.6952 12.3H20.3925C20.3587 13.2794 20.1526 14.2452 19.7837 15.1529ZM3.60747 12.3H6.30483C6.32461 13.4134 6.48281 14.5201 6.77578 15.5946L4.21626 15.1529C3.84741 14.2452 3.64131 13.2794 3.60747 12.3ZM4.21626 8.84706L6.77578 8.40541C6.48281 9.47987 6.32461 10.5866 6.30483 11.7H3.60747C3.64131 10.7206 3.84741 9.75482 4.21626 8.84706ZM12.3 7.81683C13.378 7.8306 14.4533 7.92875 15.5161 8.11053L16.575 8.2932C16.9003 9.40033 17.0754 10.5461 17.0955 11.7H12.3V7.81683ZM15.6183 7.51918C14.5219 7.33182 13.4123 7.2306 12.3 7.21683V3.61683C14.0199 3.78207 15.5139 5.35678 16.3605 7.64852L15.6183 7.51918ZM11.7 7.21683C10.5877 7.2306 9.47842 7.33182 8.38198 7.51918L7.63945 7.64764C8.48613 5.35531 9.98013 3.78002 11.7 3.61552V7.21683ZM8.48423 8.11053C9.54683 7.92875 10.622 7.8306 11.7 7.81683V11.7H6.90454C6.92461 10.5461 7.09966 9.40033 7.425 8.2932L8.48423 8.11053ZM6.90454 12.3H11.7V16.1831C10.622 16.1694 9.54668 16.0712 8.48394 15.8894L7.425 15.7068C7.09966 14.5996 6.92461 13.4538 6.90454 12.3ZM8.38169 16.4808C9.47812 16.6684 10.5876 16.7701 11.7 16.7848V20.3848C9.98013 20.2194 8.48613 18.6447 7.63945 16.3529L8.38169 16.4808ZM12.3 16.7848C13.4123 16.7701 14.5216 16.6684 15.618 16.4808L16.3605 16.3523C15.5139 18.6447 14.0199 20.22 12.3 20.3845V16.7848ZM15.5158 15.8894C14.4532 16.0712 13.378 16.1694 12.3 16.1831V12.3H17.0955C17.0754 13.4538 16.9003 14.5996 16.575 15.7068L15.5158 15.8894ZM17.6952 11.7C17.6754 10.5866 17.5172 9.47987 17.2242 8.40541L19.7837 8.84706C20.1526 9.75482 20.3587 10.7206 20.3925 11.7H17.6952ZM19.4802 8.18583L17.0268 7.76249C16.5857 6.32357 15.7605 5.03217 14.6399 4.02743C16.7354 4.72675 18.4731 6.21957 19.4802 8.18583ZM9.36006 4.02743C8.23945 5.03217 7.41431 6.32357 6.97324 7.76249L4.51977 8.18583C5.52685 6.21957 7.2646 4.72675 9.36006 4.02743ZM4.51977 15.8141L6.97324 16.2375C7.41431 17.6764 8.23945 18.9678 9.36006 19.9725C7.2646 19.2732 5.52685 17.7804 4.51977 15.8141ZM14.6399 19.9725C15.7605 18.9678 16.5857 17.6764 17.0268 16.2375L19.4802 15.8141C18.4731 17.7804 16.7354 19.2732 14.6399 19.9725Z" fill="#313130" />
	<path fillRule="evenodd" clipRule="evenodd" d="M12.0002 2.79999C17.0787 2.80568 21.1943 6.92132 21.2 11.9998C21.2 17.0807 17.081 21.2 12 21.2C6.91903 21.2 2.8 17.081 2.8 12C2.8 6.91902 6.91926 2.79999 12.0002 2.79999ZM19.7837 15.1529C20.1275 14.307 20.3298 13.4107 20.3832 12.5C20.3871 12.4334 20.3902 12.3667 20.3925 12.3H17.6952C17.6767 13.3401 17.5374 14.3743 17.2803 15.3819C17.2622 15.4529 17.2435 15.5238 17.2242 15.5946L19.7837 15.1529ZM17.4959 15.3447L19.6394 14.9749C19.9486 14.1832 20.1319 13.3481 20.1829 12.5H17.8902C17.8593 13.4596 17.7271 14.4131 17.4959 15.3447ZM15.6526 7.32215L16.0456 7.39062C15.2351 5.41203 13.9402 4.09402 12.5 3.84534V7.02021C13.5566 7.04303 14.6108 7.14412 15.6526 7.32215ZM12.3 7.21683V3.61683C12.367 3.62327 12.4337 3.63185 12.5 3.64253C14.0809 3.89712 15.4527 5.34505 16.2774 7.43102C16.3058 7.50277 16.3335 7.57528 16.3605 7.64852L15.6183 7.51918C14.5219 7.33182 13.4123 7.2306 12.3 7.21683ZM8.38198 7.51918C9.47842 7.33182 10.5877 7.2306 11.7 7.21683V3.61552C11.633 3.62193 11.5663 3.63048 11.5 3.64113C9.919 3.89515 8.54717 5.34368 7.72251 7.4303C7.69417 7.502 7.66648 7.57446 7.63945 7.64764L8.38198 7.51918ZM7.95419 7.39022L8.34789 7.3221C9.3897 7.14409 10.4435 7.04303 11.5 7.02021V3.84393C10.0597 4.09206 8.76465 5.41071 7.95419 7.39022ZM6.90957 12.5C6.90738 12.4334 6.9057 12.3667 6.90454 12.3H11.7V16.1831C11.6333 16.1823 11.5667 16.1811 11.5 16.1796C10.489 16.1569 9.48094 16.06 8.48394 15.8894L7.425 15.7068C7.11846 14.6636 6.94535 13.5862 6.90957 12.5ZM7.10968 12.5C7.144 13.5257 7.30272 14.5434 7.58243 15.531L8.51766 15.6923C9.50352 15.8609 10.5003 15.9569 11.5 15.9796V12.5H7.10968ZM8.34773 16.6779L7.95411 16.6101C8.76453 18.5891 10.0596 19.9074 11.5 20.1562V16.9812C10.4433 16.9576 9.38958 16.8562 8.34773 16.6779ZM11.7 16.7848C10.5876 16.7701 9.47812 16.6684 8.38169 16.4808L7.63945 16.3529C7.66648 16.4261 7.69417 16.4985 7.7225 16.5702C8.54716 18.6563 9.919 20.1043 11.5 20.359C11.5663 20.3697 11.633 20.3783 11.7 20.3848V16.7848ZM15.618 16.4808C14.5216 16.6684 13.4123 16.7701 12.3 16.7848V20.3845C12.367 20.3781 12.4337 20.3695 12.5 20.3588C14.081 20.1048 15.4528 18.6563 16.2775 16.5697C16.3058 16.498 16.3335 16.4255 16.3605 16.3523L15.618 16.4808ZM16.0458 16.6098L15.6521 16.6779C14.6103 16.8562 13.5565 16.9576 12.5 16.9812V20.156C13.9403 19.9079 15.2353 18.5893 16.0458 16.6098ZM21 12C21 16.9705 16.9705 21 12 21C7.02949 21 3 16.9705 3 12C3 7.02948 7.02949 2.99999 12 2.99999C16.9682 3.00555 20.9944 7.03182 21 12ZM3.60747 12.3C3.60978 12.3667 3.61288 12.4334 3.61678 12.5C3.67015 13.4107 3.87254 14.307 4.21626 15.1529L6.77578 15.5946C6.75649 15.5238 6.73779 15.4529 6.71967 15.3819C6.46258 14.3743 6.32331 13.3401 6.30483 12.3H3.60747ZM3.81713 12.5C3.86806 13.3481 4.05139 14.1832 4.3606 14.9749L6.50407 15.3447C6.27285 14.4131 6.14066 13.4596 6.10977 12.5H3.81713ZM4.3606 9.02511C4.05139 9.81677 3.86806 10.6519 3.81713 11.5H6.10977C6.14066 10.5404 6.27285 9.58689 6.50407 8.65525L4.3606 9.02511ZM4.21626 8.84706C3.87254 9.69297 3.67015 10.5892 3.61678 11.5C3.61288 11.5666 3.60978 11.6333 3.60747 11.7H6.30483C6.32331 10.6599 6.46258 9.62563 6.71967 8.61805C6.73779 8.54703 6.75649 8.47615 6.77578 8.40541L4.21626 8.84706ZM12.3 11.7H17.0955C17.0943 11.6333 17.0926 11.5666 17.0904 11.5C17.0547 10.4138 16.8815 9.33633 16.575 8.2932L15.5161 8.11053C14.5191 7.93999 13.511 7.84306 12.5 7.82036C12.4333 7.81886 12.3667 7.81769 12.3 7.81683V11.7ZM12.5 8.02041V11.5H16.8903C16.856 10.4743 16.6973 9.45654 16.4176 8.469L15.4823 8.30767C14.4965 8.13904 13.4997 8.04308 12.5 8.02041ZM8.51795 8.30767L7.58243 8.469C7.30272 9.45655 7.144 10.4743 7.10968 11.5H11.5V8.02041C10.5004 8.04308 9.50365 8.13904 8.51795 8.30767ZM11.5 7.82036C10.4891 7.84306 9.4811 7.93999 8.48423 8.11053L7.425 8.2932C7.11846 9.33633 6.94535 10.4138 6.90957 11.5C6.90738 11.5666 6.9057 11.6333 6.90454 11.7H11.7V7.81683C11.6333 7.81769 11.5667 7.81886 11.5 7.82036ZM15.4818 15.6924C14.4961 15.861 13.4996 15.9569 12.5 15.9796L15.4818 15.6924ZM15.4818 15.6924L16.4176 15.531C16.6973 14.5434 16.856 13.5257 16.8903 12.5H12.5V15.9796M12.5 16.1796C12.4333 16.1811 12.3667 16.1823 12.3 16.1831V12.3H17.0955C17.0943 12.3667 17.0926 12.4334 17.0904 12.5C17.0547 13.5862 16.8815 14.6636 16.575 15.7068L15.5158 15.8894C14.5189 16.06 13.5109 16.1569 12.5 16.1796ZM17.8902 11.5H20.1829C20.1319 10.6519 19.9486 9.81677 19.6394 9.02511L17.4959 8.65525C17.7271 9.58689 17.8593 10.5404 17.8902 11.5ZM17.2803 8.61805C17.5374 9.62563 17.6767 10.6599 17.6952 11.7H20.3925C20.3902 11.6333 20.3871 11.5666 20.3832 11.5C20.3298 10.5892 20.1275 9.69297 19.7837 8.84706L17.2242 8.40541C17.2435 8.47615 17.2622 8.54703 17.2803 8.61805ZM19.4802 8.18583C19.4417 8.11065 19.4021 8.03617 19.3615 7.96239C18.421 6.25419 16.9191 4.92662 15.1144 4.20172C14.9585 4.13907 14.8002 4.08093 14.6399 4.02743C14.7642 4.13886 14.8849 4.25381 15.0018 4.37211C15.9388 5.32042 16.6346 6.48315 17.0268 7.76249L19.4802 8.18583ZM19.1073 7.91852C18.2617 6.45141 16.9867 5.28417 15.4608 4.57016C16.2342 5.44368 16.821 6.46999 17.1809 7.58614L19.1073 7.91852ZM9.36006 4.02743C9.19975 4.08093 9.04154 4.13907 8.88559 4.20171C7.08094 4.92661 5.57898 6.25419 4.63847 7.96239C4.59785 8.03617 4.55828 8.11065 4.51977 8.18583L6.97324 7.76249C7.36539 6.48315 8.06115 5.32042 8.99824 4.37211C9.11513 4.25381 9.23578 4.13886 9.36006 4.02743ZM8.53921 4.57016C7.76579 5.44368 7.17904 6.46999 6.81905 7.58614L4.89273 7.91852C5.73828 6.45141 7.01333 5.28417 8.53921 4.57016ZM4.51977 15.8141C4.55828 15.8893 4.59785 15.9638 4.63847 16.0376C5.57898 17.7458 7.08093 19.0734 8.88559 19.7983C9.04154 19.8609 9.19975 19.919 9.36006 19.9725C9.23578 19.8611 9.11514 19.7462 8.99825 19.6279C8.06116 18.6796 7.36539 17.5168 6.97324 16.2375L4.51977 15.8141ZM4.89273 16.0815C5.73828 17.5486 7.01333 18.7158 8.5392 19.4298C7.76579 18.5563 7.17904 17.53 6.81905 16.4138L4.89273 16.0815ZM15.0017 19.6279C14.8849 19.7462 14.7642 19.8611 14.6399 19.9725C14.8002 19.919 14.9585 19.8609 15.1144 19.7983C16.9191 19.0734 18.421 17.7458 19.3615 16.0376C19.4021 15.9638 19.4417 15.8893 19.4802 15.8141L17.0268 16.2375C16.6346 17.5168 15.9388 18.6796 15.0017 19.6279ZM15.4608 19.4298C16.9867 18.7158 18.2617 17.5486 19.1073 16.0815L17.1809 16.4138C16.821 17.53 16.2342 18.5563 15.4608 19.4298Z" fill="#313130" />
</svg>
