<svg width="18" height="20" viewBox="0 0 18 20" fill="none" xmlns="http://www.w3.org/2000/svg">
<path fill-rule="evenodd" clip-rule="evenodd" d="M10.7492 3.18126C9.73431 2.50429 8.54143 2.14355 7.32147 2.14467C5.68914 2.15355 4.12628 2.80632 2.97256 3.9611C1.81883 5.11588 1.16749 6.67933 1.1601 8.31167C1.1601 9.53163 1.52193 10.7242 2.19982 11.7385C2.87771 12.7527 3.84119 13.5432 4.9684 14.0098C6.0956 14.4764 7.33587 14.5982 8.5323 14.3598C9.72874 14.1214 10.8276 13.5334 11.6898 12.6704C12.5521 11.8074 13.139 10.708 13.3763 9.51134C13.6136 8.31469 13.4907 7.07453 13.0231 5.94776C12.5554 4.82098 11.7641 3.85822 10.7492 3.18126ZM3.25383 2.22402C4.45786 1.41951 5.8734 0.990112 7.32147 0.990112C9.26327 0.990112 11.1255 1.76149 12.4986 3.13455C13.8717 4.50761 14.643 6.36987 14.643 8.31167C14.643 9.75974 14.2136 11.1753 13.4091 12.3793C12.6046 13.5833 11.4612 14.5218 10.1233 15.0759C8.78547 15.6301 7.31335 15.7751 5.89311 15.4926C4.47286 15.21 3.16829 14.5127 2.14435 13.4888C1.12041 12.4649 0.423098 11.1603 0.140593 9.74004C-0.141911 8.3198 0.00308087 6.84767 0.557232 5.50983C1.11138 4.17199 2.04981 3.02852 3.25383 2.22402ZM13.6856 13.8704L17.8364 18.0493C17.8885 18.1019 17.9298 18.1641 17.9579 18.2326C17.9859 18.3011 18.0003 18.3744 18 18.4484C17.9997 18.5224 17.9849 18.5956 17.9563 18.6639C17.9278 18.7321 17.8861 18.7941 17.8335 18.8463C17.781 18.8984 17.7188 18.9397 17.6503 18.9678C17.5818 18.9958 17.5085 19.0102 17.4345 19.0099C17.3605 19.0096 17.2873 18.9948 17.219 18.9662C17.1507 18.9377 17.0888 18.896 17.0366 18.8434L12.8859 14.6645L13.6856 13.8704Z" fill="#313130"/>
</svg>
