<svg width="24" height="24" viewBox="0 0 24 24" fill="none" xmlns="http://www.w3.org/2000/svg">
<path d="M12 11.3333C12.923 11.3333 13.8252 11.0596 14.5927 10.5469C15.3601 10.0341 15.9582 9.30525 16.3114 8.45253C16.6646 7.5998 16.7571 6.66149 16.577 5.75625C16.3969 4.851 15.9525 4.01948 15.2998 3.36684C14.6472 2.71419 13.8157 2.26974 12.9104 2.08967C12.0052 1.90961 11.0669 2.00202 10.2141 2.35523C9.36142 2.70844 8.63258 3.30658 8.1198 4.07401C7.60702 4.84144 7.33333 5.74369 7.33333 6.66667C7.33333 7.90435 7.82499 9.09133 8.70016 9.9665C9.57533 10.8417 10.7623 11.3333 12 11.3333ZM12 3.33334C12.6593 3.33334 13.3037 3.52883 13.8519 3.8951C14.4001 4.26137 14.8273 4.78197 15.0796 5.39106C15.3319 6.00014 15.3979 6.67037 15.2693 7.31697C15.1407 7.96357 14.8232 8.55752 14.357 9.02369C13.8908 9.48987 13.2969 9.80734 12.6503 9.93595C12.0037 10.0646 11.3335 9.99856 10.7244 9.74627C10.1153 9.49398 9.5947 9.06673 9.22843 8.51857C8.86216 7.97041 8.66666 7.32594 8.66666 6.66667C8.66666 5.78261 9.01785 4.93477 9.64297 4.30965C10.2681 3.68452 11.1159 3.33334 12 3.33334V3.33334Z" fill="#313130"/>
<path d="M20.3133 16.2467C19.2442 15.1167 17.9558 14.2166 16.527 13.6015C15.0982 12.9863 13.5589 12.6691 12.0033 12.6691C10.4477 12.6691 8.90846 12.9863 7.47963 13.6015C6.05081 14.2166 4.76246 15.1167 3.69333 16.2467C3.46154 16.4942 3.3328 16.8208 3.33333 17.16V20.6667C3.33333 21.0203 3.47381 21.3594 3.72385 21.6095C3.9739 21.8595 4.31304 22 4.66666 22H19.3333C19.6869 22 20.0261 21.8595 20.2761 21.6095C20.5262 21.3594 20.6667 21.0203 20.6667 20.6667V17.16C20.669 16.8217 20.5427 16.4953 20.3133 16.2467V16.2467ZM19.3333 20.6667H4.66666V17.1533C5.61148 16.1584 6.74886 15.3662 8.00957 14.8248C9.27028 14.2835 10.628 14.0043 12 14.0043C13.372 14.0043 14.7297 14.2835 15.9904 14.8248C17.2511 15.3662 18.3885 16.1584 19.3333 17.1533V20.6667Z" fill="#313130"/>
</svg>
